<svg xmlns="http://www.w3.org/2000/svg" viewBox="0 0 834 826"><g fill="#000" fill-rule="evenodd"><path d="m416 255.539 115.1-98.629 8.1-117.189L504.96.776l167.02 28.577 79.539 150.148-46.937-18.927-106.145 42.384L539.2 344.865l132.78 80.373 110.264-29.33 26.026-41.898 24.965 168.263-118.448 120.985 4.708-49.838-75.088-91.067-150.555-11.815-36.457 152.72 62.107 96.437 48.28 10.979L416 825.687l-150.715-75.013 48.052-10.979 61.71-96.437-36.298-152.72-150.747 11.815-73.405 91.067 3.734 49.838L.109 522.273 23.424 354.01l26.08 41.898 111.25 29.33 130.978-80.373-58.384-141.907-107.69-42.384-45.808 18.927 75.855-150.148L323.243.776l-31.511 38.945 6.678 117.189z"/><path d="m416 215.035 85.106-74.542 3.776-69.206L416 148.745l-91.63-77.458 4.213 69.206zM512.904 524.3l-23.108 110.749 38.633 57.543 24.37-115.351 119.793 6.717-45.013-52.736zM318.608 524.3l23.108 110.749-38.633 57.543-24.37-115.351-119.793 6.717 45.013-52.736zM576.324 332.391l97.193 57.905 66.986-17.794-101.133-60.596 45.352-111.081-64.518 25.393zM252.188 332.391l-97.193 57.905-66.986-17.794 101.133-60.596-45.352-111.081 64.518 25.393z"/></g></svg>
