<svg xmlns="http://www.w3.org/2000/svg" viewBox="0 0 32 32"><path fill="#444" d="M18.336 19.849v6.695a.273.273 0 01-.274.271H8.705a.273.273 0 01-.274-.271v-.264c1.898-.086 3.577-.46 5.258-1.373.2-.104.313-.166.698-.378l-.009-.009c.23-.101.463-.271.651-.435 1.178-1.02 1.612-2.665 1.633-4.168l-.002-.069h1.674zM24.56 6.37c-.111 0-.222.004-.332.009l-.659.03c-1.41.075-2.916.427-4.185 1.063.365.115.702.327.989.576 1.18 1.023 1.607 2.663 1.633 4.167 0 2.646-1.466 4.888-3.475 4.888-.122-.008-.166-.005-.195-.009v-3.802a.272.272 0 00-.273-.271H8.706a.273.273 0 00-.274.271v9.344c-.08.08-.209.155-.369.223-.146.061-.486.154-.486.154-1.352.255-2.618-.086-3.376-1.291-.657-1.094-.628-2.625.022-4.004.338-.717.746-.581.658-.182-.057.256-.134.45-.153.492-.286.635-.275 2.42.22 3.245.576.925 1.626 1.11 2.628.848l-.015-8.829c0-.633.515-1.142 1.145-1.142h4.002V8.348l-.029.012C4.527 11.871-.597 18.164 1.234 22.416c1.095 2.453 3.742 2.946 6.348 2.99l.85.003c1.389-.029 2.52-.284 3.805-.783-1.82-.775-2.491-2.873-2.523-4.707 0-2.078 1.055-4.803 3.475-4.888l.187.007.203.028v3.641c0 .15.123.271.274.271h9.357a.273.273 0 00.274-.271V9.346l.02-.005c.469-.155.872-.244.872-.244.334-.083.679-.1 1.021-.11 1.052.027 1.973.444 2.474 1.375.62 1.152.58 2.291.044 3.632-.089.223-.508.843-.724.737s-.029-.621-.013-.684c.308-1.247.442-2.411-.053-3.237-.618-.992-1.702-1.09-2.75-.816l-.018 8.713c0 .633-.515 1.142-1.145 1.142H19.21v3.949l.103-.043c8.152-3.511 13.276-9.804 11.445-14.056-1.135-2.337-3.089-3.197-5.581-3.325-.205.001-.41-.002-.615-.005zm-1.35-1.185h-9.357a.273.273 0 00-.274.271v6.695h1.478c.025-1.557.581-3.43 2.08-4.426l.086-.058c1.917-1.277 3.953-1.913 6.26-2.057v-.154a.272.272 0 00-.273-.271z"/></svg>
